<?xml version="1.0" standalone="no"?>
<!DOCTYPE svg PUBLIC "-//W3C//DTD SVG 20010904//EN"
 "http://www.w3.org/TR/2001/REC-SVG-20010904/DTD/svg10.dtd">
<svg version="1.0" xmlns="http://www.w3.org/2000/svg"
 width="512.000000pt" height="512.000000pt" viewBox="0 0 512.000000 512.000000"
 preserveAspectRatio="xMidYMid meet">
<metadata>
Created by potrace 1.16, written by Peter Selinger 2001-2019
</metadata>
<g transform="translate(0.000000,512.000000) scale(0.100000,-0.100000)"
fill="#000000" stroke="none">
<path d="M0 2560 l0 -2560 2560 0 2560 0 0 2560 0 2560 -2560 0 -2560 0 0
-2560z m2625 1823 c28 -76 63 -142 124 -233 51 -77 56 -89 56 -140 l0 -55 -60
5 c-33 3 -103 5 -155 5 -52 0 -124 -2 -160 -5 l-65 -5 -3 32 c-4 41 25 108 93
208 29 44 68 115 85 158 40 93 59 100 85 30z m-594 -136 c-1 -12 -15 -9 -19 4
-3 6 1 10 8 8 6 -3 11 -8 11 -12z m1149 3 c0 -5 -4 -10 -10 -10 -5 0 -10 5
-10 10 0 6 5 10 10 10 6 0 10 -4 10 -10z m288 -93 c-9 -18 -11 -19 -20 -3 -5
9 -6 26 -2 38 6 21 7 21 20 3 10 -13 11 -23 2 -38z m-1701 -60 c8 -17 7 -28
-3 -42 -8 -10 -15 -17 -17 -14 -1 2 -8 12 -15 21 -11 13 -11 20 0 37 16 27 22
26 35 -2z m346 -97 c43 -16 58 -27 63 -46 9 -36 -1 -51 -43 -64 -21 -7 -76
-31 -121 -54 -81 -39 -84 -40 -98 -21 -24 33 -17 62 24 92 47 35 50 39 58 86
6 36 8 39 33 34 15 -3 52 -15 84 -27z m1071 -10 c6 -38 15 -50 75 -97 19 -16
22 -25 16 -52 -9 -43 -27 -48 -71 -21 -19 13 -72 37 -117 55 -77 29 -82 33
-85 63 -3 30 0 34 40 51 125 51 134 52 142 1z m-372 -134 c246 -44 329 -118
365 -324 19 -108 12 -347 -12 -437 -22 -83 -67 -177 -111 -231 -34 -41 -181
-150 -191 -140 -2 2 5 32 17 67 40 125 51 203 57 391 6 183 6 188 29 203 18
12 24 25 24 53 l0 37 -65 -61 c-126 -121 -446 -251 -880 -358 -104 -26 -214
-53 -242 -61 -29 -7 -53 -10 -53 -6 0 11 29 48 123 158 147 173 423 407 604
511 39 23 75 42 80 42 5 0 18 7 29 15 17 14 15 15 -31 9 -87 -10 -157 -34
-265 -90 -210 -109 -368 -240 -663 -547 -111 -117 -227 -236 -257 -266 l-55
-54 -3 29 c-5 55 46 226 103 339 139 278 384 507 685 640 76 33 231 78 305 88
74 10 336 5 407 -7z m-1342 -34 c41 -11 105 -27 142 -36 67 -15 142 -55 152
-81 3 -9 -12 -27 -37 -47 -23 -17 -90 -79 -148 -136 l-107 -104 -22 24 c-37
40 -51 77 -65 177 -8 53 -23 122 -34 155 -31 87 -31 87 119 48z m2370 9 c0
-10 -7 -38 -16 -62 -8 -24 -21 -89 -28 -145 -14 -107 -29 -145 -69 -182 l-25
-24 -98 102 c-54 56 -120 117 -146 137 -39 28 -46 38 -39 52 17 31 107 71 209
91 55 11 115 27 134 35 48 21 78 19 78 -4z m-457 -245 c181 -154 295 -285 282
-326 -6 -18 -12 -20 -38 -14 -155 33 -279 143 -343 304 -23 59 -40 140 -29
140 4 0 62 -47 128 -104z m-9 -251 c87 -88 202 -149 316 -169 l75 -12 28 -67
c15 -36 33 -90 41 -119 17 -66 16 -66 -118 -67 -172 -2 -264 34 -359 140 -88
96 -127 225 -127 418 l0 94 37 -73 c24 -50 59 -97 107 -145z m671 165 c-5 -8
-11 -8 -17 -2 -6 6 -7 16 -3 22 5 8 11 8 17 2 6 -6 7 -16 3 -22z m-2696 -175
c35 -41 36 -38 -32 -140 -54 -80 -115 -153 -139 -166 -32 -17 -87 -2 -98 27
-6 15 -15 22 -22 18 -7 -4 -8 -3 -4 4 3 6 -2 15 -12 21 -22 12 -71 115 -79
168 l-6 36 34 -6 c19 -3 52 -11 75 -18 52 -16 75 -9 159 45 39 25 75 46 81 46
7 0 26 -16 43 -35z m2599 -10 c80 -53 120 -62 181 -41 24 9 55 16 69 16 23 0
24 -3 19 -35 -8 -51 -62 -157 -101 -198 -38 -41 -77 -54 -111 -39 -41 19 -175
195 -200 263 -4 11 5 27 27 48 18 17 36 31 41 31 4 0 38 -20 75 -45z m-1105
-177 c-19 -251 -194 -408 -442 -396 -101 5 -173 33 -241 94 -42 37 -100 110
-100 124 0 3 27 4 60 2 193 -14 484 74 665 202 28 19 53 35 56 35 3 1 4 -27 2
-61z m-1649 -283 c-1 -11 -9 -72 -19 -135 -21 -140 -17 -346 10 -494 l19 -99
-23 -18 c-13 -11 -31 -19 -40 -19 -9 1 -3 7 14 16 30 14 30 14 3 9 -24 -5 -28
-1 -37 32 -6 21 -11 45 -12 53 0 10 -3 9 -10 -5 -6 -14 -8 -7 -4 25 4 35 3 40
-5 25 -8 -16 -9 -12 -6 18 7 51 -7 82 -41 96 -15 6 -62 32 -103 56 -100 60
-191 107 -197 102 -2 -3 18 -15 44 -28 60 -29 114 -65 107 -72 -3 -2 -40 15
-82 39 -71 40 -124 73 -94 59 6 -3 12 -2 12 3 0 6 -7 12 -15 16 -26 9 -17 26
23 42 20 8 101 47 179 86 l142 70 15 67 c18 77 31 90 83 82 30 -5 38 -11 37
-26z m2878 23 c9 -7 24 -40 32 -73 10 -37 24 -66 38 -77 13 -10 94 -53 180
-95 87 -43 156 -82 155 -87 -2 -4 -50 -33 -107 -63 -58 -31 -108 -61 -112 -67
-13 -20 1 -18 34 7 38 29 169 100 174 95 2 -2 -42 -30 -97 -62 -55 -32 -125
-77 -157 -100 -31 -24 -72 -51 -90 -62 -18 -10 -30 -24 -28 -31 3 -7 0 -15 -5
-19 -6 -4 -8 -21 -5 -43 5 -27 4 -32 -4 -21 -9 11 -10 5 -5 -26 5 -31 2 -44
-11 -55 -16 -13 -16 -12 -5 9 7 13 10 26 7 30 -3 3 -6 0 -6 -7 0 -9 -11 -12
-35 -9 -23 3 -32 0 -27 -7 4 -6 0 -3 -9 6 -14 15 -14 25 -3 81 39 187 42 392
9 567 -9 46 -14 89 -11 96 3 8 17 15 33 18 15 2 31 5 34 6 3 0 12 -5 21 -11z
m-2186 -130 c1 -21 -7 -51 -17 -67 -31 -52 -59 -59 -237 -63 -89 -1 -162 0
-162 5 0 4 5 7 12 7 6 0 8 3 5 6 -4 4 -13 1 -22 -6 -13 -11 -15 -48 -13 -260
l3 -247 57 -114 c31 -63 68 -127 82 -144 l25 -30 1 170 c0 172 -5 215 -22 215
-5 0 -6 -6 -3 -12 4 -7 -1 -4 -9 6 -10 12 -16 39 -16 67 0 63 22 79 107 79 51
0 66 -4 83 -22 19 -21 20 -33 20 -424 0 -248 -4 -405 -10 -409 -21 -13 -100
43 -195 138 -55 56 -87 83 -71 62 16 -22 46 -56 65 -76 59 -58 79 -88 27 -39
-49 46 -150 170 -127 155 9 -5 12 -3 9 6 -3 8 -11 13 -17 11 -7 -1 -10 2 -6 8
4 6 -10 29 -30 51 -19 22 -33 44 -30 49 4 6 1 10 -5 10 -6 0 -9 4 -6 9 4 5 2
11 -2 13 -17 6 -72 167 -87 253 -20 117 -21 481 -1 528 17 41 64 85 102 97 16
5 133 8 259 7 l230 -2 1 -37z m1382 -650 l2 -688 -77 -36 c-117 -54 -263 -100
-401 -126 -107 -19 -124 -20 -132 -8 -16 24 -13 1239 3 1270 11 22 20 25 74
28 99 5 93 43 93 -561 0 -411 3 -518 13 -515 6 3 48 17 92 32 44 14 98 37 120
49 l40 23 5 579 5 580 60 32 c110 60 100 129 103 -659z m525 678 c71 -26 120
-95 95 -135 -10 -17 -27 -20 -147 -23 -139 -4 -192 2 -111 13 l45 6 -42 1
c-57 3 -63 -12 -63 -157 l0 -119 129 -4 c147 -3 163 -11 182 -82 20 -73 -26
-279 -86 -381 -12 -22 -23 -44 -23 -48 0 -5 -8 -14 -18 -21 -11 -8 -14 -18 -9
-26 5 -8 4 -11 -2 -7 -9 6 -50 -52 -45 -65 1 -5 -4 -7 -11 -5 -6 1 -11 -6 -11
-15 1 -10 -3 -16 -9 -15 -6 1 -11 -5 -12 -13 0 -8 -7 -15 -15 -15 -8 -1 -14
-6 -13 -13 2 -7 0 -11 -5 -10 -11 4 -82 -53 -77 -62 3 -5 0 -12 -6 -16 -8 -5
-9 -3 -4 6 6 9 0 10 -24 5 -23 -5 -41 -1 -69 15 -20 12 -31 16 -24 9 6 -7 12
-18 12 -23 0 -17 -20 8 -27 35 -4 13 -8 81 -10 151 -4 125 -4 128 21 153 19
19 36 25 66 25 63 0 80 -13 80 -63 l0 -42 21 25 c53 67 157 325 138 345 -3 3
-65 6 -136 8 -99 1 -136 6 -150 17 -10 8 -8 5 5 -7 13 -13 35 -24 50 -24 18
-1 21 -3 9 -6 -26 -7 -76 16 -89 41 -14 26 -23 279 -13 370 10 95 58 158 136
176 56 13 220 10 262 -4z m-1737 -240 c18 -14 19 -33 22 -499 l3 -484 67 -31
c57 -27 176 -72 189 -72 1 0 3 240 3 533 0 401 3 536 12 545 7 7 39 12 75 12
51 0 64 -3 73 -19 6 -13 10 -235 10 -651 0 -571 -2 -631 -16 -637 -24 -9 -219
32 -342 72 -59 19 -138 52 -177 73 l-70 38 -3 547 c-2 536 -2 547 18 567 24
24 106 28 136 6z m-1110 -143 c6 3 16 2 24 -4 12 -7 12 -9 1 -9 -11 0 -11 -3
-1 -15 14 -17 35 -21 25 -5 -3 6 1 7 9 4 9 -3 13 -10 10 -16 -3 -5 0 -9 7 -7
38 5 50 -1 44 -21 -4 -11 -2 -20 4 -20 6 0 11 -5 11 -11 0 -5 -40 18 -90 52
-49 34 -87 66 -84 71 3 5 12 1 18 -8 7 -9 17 -14 22 -11z m2632 -200 c-10 -2
-28 -2 -40 0 -13 2 -5 4 17 4 22 1 32 -1 23 -4z m85 0 c-13 -2 -33 -2 -45 0
-13 2 -3 4 22 4 25 0 35 -2 23 -4z m-2545 -83 c0 -9 -3 -7 -8 5 -5 11 -8 29
-8 40 0 16 2 15 8 -5 4 -14 8 -32 8 -40z m2922 -10 c0 -5 -4 -10 -10 -10 -5 0
-10 5 -10 10 0 6 5 10 10 10 6 0 10 -4 10 -10z m-2890 -162 c6 -7 31 -49 56
-94 25 -45 66 -105 91 -134 48 -54 48 -53 3 -80 -11 -6 -32 2 -71 25 -30 19
-75 39 -101 46 -41 11 -53 10 -107 -8 -34 -12 -63 -18 -65 -15 -8 13 43 143
74 192 47 74 93 99 120 68z m2952 -7 c29 -23 81 -117 108 -196 21 -62 19 -64
-50 -40 -64 23 -91 19 -179 -27 -83 -43 -90 -43 -140 -11 -2 1 18 26 43 54 26
29 66 84 88 123 66 114 68 116 87 116 10 0 29 -9 43 -19z m-2786 -319 c-17
-16 -18 -16 -5 5 7 12 15 20 18 17 3 -2 -3 -12 -13 -22z m196 -93 c21 -29 160
-149 222 -192 15 -10 24 -23 21 -28 -11 -17 -79 -46 -175 -73 -52 -15 -128
-45 -167 -66 -42 -23 -73 -34 -73 -27 0 7 7 35 16 62 8 28 20 94 25 147 11
112 20 142 57 181 33 35 46 34 74 -4z m2241 -15 c24 -35 31 -58 42 -155 8 -63
21 -136 29 -164 8 -27 13 -51 11 -53 -2 -3 -39 14 -82 36 -43 22 -113 50 -157
62 -43 12 -98 30 -121 40 -24 10 -45 17 -47 15 -2 -2 -4 4 -5 13 0 10 36 44
95 87 52 39 113 92 135 118 23 26 48 46 56 45 8 -2 28 -21 44 -44z m-1778
-144 c3 -6 -1 -7 -9 -4 -18 7 -21 14 -7 14 6 0 13 -4 16 -10z m1131 -45 c-11
-8 -25 -15 -30 -15 -6 1 0 7 14 15 32 19 40 18 16 0z m-149 -51 c-3 -3 -12 -4
-19 -1 -8 3 -5 6 6 6 11 1 17 -2 13 -5z m-132 -34 c-16 -4 -39 -8 -50 -8 -16
0 -15 2 5 8 14 4 36 8 50 8 22 0 22 -1 -5 -8z m-442 -7 c-7 -2 -19 -2 -25 0
-7 3 -2 5 12 5 14 0 19 -2 13 -5z m-343 -51 c52 -21 103 -42 113 -45 11 -4 17
-17 17 -36 0 -20 -6 -31 -17 -35 -10 -3 -38 -10 -63 -16 -25 -7 -53 -19 -63
-28 -21 -19 -28 -13 -29 27 -1 18 -6 34 -11 38 -6 4 -7 1 -2 -7 5 -9 4 -11 -4
-6 -6 4 -9 12 -5 17 8 14 -17 41 -33 35 -8 -3 -11 -1 -8 4 3 5 -3 15 -15 22
-11 7 -20 19 -20 26 0 23 21 54 33 49 7 -3 55 -23 107 -45z m1233 15 c8 -25 4
-32 -42 -75 -41 -39 -51 -54 -51 -80 0 -32 0 -32 -24 -17 -13 9 -53 24 -88 33
-59 16 -63 19 -63 47 0 27 5 31 95 65 52 20 104 41 115 48 29 17 47 11 58 -21z
m-465 -118 c2 -16 -16 -49 -57 -104 -62 -83 -105 -162 -137 -252 -10 -29 -22
-53 -27 -53 -4 0 -13 13 -18 30 -6 16 -14 28 -17 26 -4 -2 -8 7 -9 21 -2 38
-72 175 -85 167 -7 -4 -8 -2 -4 4 3 6 -16 42 -44 80 -45 62 -58 91 -46 103 2
2 103 3 223 3 l218 -1 3 -24z m692 -229 c0 -5 -4 -10 -10 -10 -5 0 -10 5 -10
10 0 6 5 10 10 10 6 0 10 -4 10 -10z"/>
<path d="M4220 2395 c-14 -16 -3 -20 19 -6 8 5 9 11 3 15 -5 3 -15 -1 -22 -9z"/>
<path d="M4165 2373 c-44 -23 -65 -44 -65 -65 0 -16 3 -16 20 -6 11 7 20 16
20 21 0 4 -6 5 -12 1 -9 -5 -8 -2 1 10 10 12 16 14 21 5 11 -16 61 18 53 37
-3 8 -6 14 -7 13 0 -1 -14 -8 -31 -16z m25 -13 c-8 -5 -19 -10 -25 -10 -5 0
-3 5 5 10 8 5 20 10 25 10 6 0 3 -5 -5 -10z"/>
<path d="M1830 2664 c-17 -9 -20 -14 -9 -14 9 0 22 7 29 15 15 18 13 18 -20
-1z"/>
<path d="M1593 2643 c9 -2 25 -2 35 0 9 3 1 5 -18 5 -19 0 -27 -2 -17 -5z"/>
<path d="M1693 2643 c9 -2 23 -2 30 0 6 3 -1 5 -18 5 -16 0 -22 -2 -12 -5z"/>
<path d="M1778 2643 c7 -3 16 -2 19 1 4 3 -2 6 -13 5 -11 0 -14 -3 -6 -6z"/>
<path d="M3718 2633 c23 -2 61 -2 85 0 23 2 4 4 -43 4 -47 0 -66 -2 -42 -4z"/>
<path d="M1031 2333 c-1 -17 16 -25 25 -12 4 7 3 9 -4 5 -5 -3 -13 0 -15 6 -4
9 -6 10 -6 1z"/>
</g>
</svg>
